<?xml version="1.0" standalone="no"?>
<!DOCTYPE svg PUBLIC "-//W3C//DTD SVG 20010904//EN"
 "http://www.w3.org/TR/2001/REC-SVG-20010904/DTD/svg10.dtd">
<svg version="1.0" xmlns="http://www.w3.org/2000/svg"
 width="232.000000pt" height="232.000000pt" viewBox="0 0 232.000000 232.000000"
 preserveAspectRatio="xMidYMid meet">
<metadata>
Created by potrace 1.11, written by Peter Selinger 2001-2013
</metadata>
<g transform="translate(0.000000,232.000000) scale(0.100000,-0.100000)"
fill="#000000" stroke="none">
<path d="M800 2263 c-24 -8 -70 -64 -70 -84 0 -11 -4 -27 -9 -37 -23 -48 -37
-109 -27 -125 6 -9 6 -20 2 -24 -5 -4 -11 -2 -13 5 -5 13 -45 17 -56 5 -4 -3
1 -15 10 -26 11 -13 12 -17 4 -12 -11 6 -13 4 -8 -8 4 -10 2 -16 -5 -14 -7 1
-12 -5 -13 -13 0 -8 -8 -29 -17 -46 -10 -17 -14 -35 -10 -39 4 -5 1 -4 -7 0
-11 6 -13 4 -8 -9 4 -9 3 -15 -1 -12 -30 18 -84 -126 -63 -169 11 -21 7 -43
-6 -38 -11 4 -11 8 -1 22 12 14 11 15 -5 2 -17 -13 -17 -15 0 -34 17 -20 17
-20 0 -14 -11 4 -16 3 -12 -3 3 -6 0 -10 -7 -10 -10 0 -9 -3 1 -9 13 -8 13
-12 0 -27 -8 -11 -9 -15 -2 -10 9 5 11 2 7 -8 -3 -9 -10 -14 -14 -11 -4 3 -6
-9 -5 -27 3 -33 -32 -145 -64 -206 -11 -20 -36 -72 -56 -114 -20 -43 -54 -105
-76 -138 -21 -33 -39 -64 -39 -68 0 -4 -18 -29 -40 -56 -22 -26 -38 -52 -35
-57 3 -4 -2 -25 -10 -46 -21 -48 -26 -69 -30 -115 -2 -20 -6 -42 -10 -48 -13
-21 -6 -112 10 -137 20 -30 73 -63 102 -63 34 0 46 -30 22 -56 -10 -11 -20
-31 -21 -45 -2 -26 42 -129 55 -129 5 0 28 -13 52 -30 24 -16 49 -30 56 -30 7
0 40 -11 74 -25 34 -13 77 -26 96 -29 19 -2 54 -9 79 -15 111 -26 306 -43 490
-43 247 1 289 3 333 16 30 9 49 10 65 3 42 -19 349 55 462 111 65 32 79 44
107 90 38 64 37 120 -1 161 -13 14 -27 35 -30 46 -3 12 -24 38 -46 59 -35 33
-40 43 -40 81 0 24 5 47 10 50 6 4 10 23 9 43 -3 46 7 81 44 156 16 32 31 82
34 110 5 55 30 155 43 171 4 6 11 33 15 61 3 28 13 64 21 79 8 15 17 51 19 79
11 107 17 131 46 198 17 40 29 82 27 102 -2 29 -7 35 -37 45 -55 19 -102 44
-129 69 -24 21 -35 25 -74 25 -10 0 -15 4 -12 8 5 8 -11 13 -19 7 -2 -2 -11 4
-20 13 -9 9 -27 15 -41 14 -14 -2 -30 3 -36 10 -6 7 -22 12 -35 9 -17 -3 -34
5 -59 28 -32 30 -34 35 -20 52 13 19 20 11 15 -16 -2 -12 17 -9 21 2 2 6 13
12 25 14 16 3 20 1 16 -10 -3 -8 -1 -14 5 -14 10 0 11 25 1 34 -3 3 -25 7 -50
10 -24 2 -46 5 -49 6 -3 1 -9 1 -15 0 -35 -8 -91 -6 -97 4 -6 8 -8 8 -8 -1 0
-7 -8 -13 -17 -14 -11 0 -13 -3 -5 -6 6 -2 10 -9 7 -13 -3 -5 -1 -11 5 -15 9
-5 14 5 12 25 0 3 8 6 18 6 10 0 18 -3 18 -6 -2 -11 15 -40 23 -40 6 0 5 10
-2 21 -8 15 -8 19 0 15 6 -4 11 -1 11 6 1 7 6 3 13 -10 10 -18 15 -20 26 -10
11 11 13 10 7 0 -4 -7 -2 -20 6 -29 9 -12 9 -15 1 -9 -8 4 -13 2 -13 -6 -1 -7
-7 -2 -14 11 -8 14 -16 19 -20 13 -3 -6 -19 -9 -34 -7 -15 1 -33 -2 -41 -9
-11 -8 -13 -8 -8 1 4 6 3 14 -3 18 -5 3 -10 0 -10 -7 0 -10 -2 -10 -9 0 -4 8
-11 13 -15 13 -18 -3 -26 0 -26 8 0 6 9 8 21 6 12 -2 19 0 17 7 -5 13 -38 20
-38 8 0 -5 -9 -7 -20 -5 -12 2 -18 0 -15 -6 4 -5 11 -7 16 -4 5 4 9 2 9 -4 0
-5 -9 -9 -19 -8 -11 0 -17 5 -14 11 4 5 -1 7 -11 3 -11 -4 -15 -3 -10 4 4 8
-1 9 -15 4 -13 -4 -21 -2 -21 5 0 6 -4 9 -9 5 -6 -3 -14 3 -20 12 -10 17 -10
17 -11 1 0 -22 -18 -24 -26 -4 -3 8 -11 14 -17 12 -7 -1 -9 -1 -4 1 4 3 7 9 7
14 0 6 -4 8 -8 5 -4 -2 -14 -1 -22 4 -8 5 -22 4 -32 -1 -14 -7 -20 -6 -25 6
-5 13 -7 14 -14 3 -7 -10 -9 -11 -9 0 0 7 -4 10 -10 7 -6 -4 -7 1 -3 11 5 13
3 15 -8 8 -20 -12 -88 -12 -86 1 1 5 -8 9 -20 7 -13 -2 -23 2 -23 8 0 6 4 9 8
6 5 -3 9 1 9 9 0 22 -15 18 -22 -5 -6 -18 -8 -18 -21 -5 -9 8 -20 12 -26 9 -7
-4 -8 -2 -4 4 4 6 14 8 24 5 14 -6 15 -4 5 9 -7 8 -10 18 -6 22 13 13 12 39
-3 67 -17 34 -95 75 -178 94 -65 16 -73 16 -96 8z m-145 -273 c3 -6 -1 -7 -9
-4 -18 7 -21 14 -7 14 6 0 13 -4 16 -10z m1094 -53 c0 -8 -3 -7 -6 2 -4 11 -7
11 -14 0 -4 -7 -11 -10 -16 -6 -9 9 17 28 29 21 4 -3 8 -11 7 -17z m-1179
-136 c0 -5 -7 -11 -14 -14 -10 -4 -13 -1 -9 9 6 15 23 19 23 5z m-34 -46 c-3
-8 0 -15 7 -15 8 0 9 -2 1 -8 -6 -4 -10 -14 -9 -23 2 -9 -3 -16 -11 -16 -10 0
-11 4 -3 14 9 10 8 13 -2 13 -12 0 -12 2 -1 9 8 4 13 11 13 15 -2 16 0 26 5
26 3 0 4 -7 0 -15z"/>
<path d="M1118 2090 c-15 -5 -29 -6 -32 -4 -3 2 -3 1 0 -3 3 -5 14 -8 25 -8
10 0 20 -4 21 -10 1 -5 11 -17 22 -26 19 -15 43 -17 94 -5 18 4 22 2 18 -10
-3 -8 -2 -12 3 -9 6 3 14 -3 20 -12 6 -11 11 -13 11 -5 0 7 4 10 10 7 6 -4 7
1 4 12 -5 17 -5 17 9 1 8 -10 17 -15 20 -11 4 3 7 0 7 -8 0 -11 2 -11 10 1 15
23 12 29 -9 25 -11 -2 -25 3 -32 11 -8 10 -8 14 0 14 6 0 11 -4 11 -9 0 -4 10
-8 23 -7 18 1 22 -4 20 -24 l-3 -25 14 24 c9 16 16 20 20 12 4 -6 11 -9 15 -7
4 3 8 -2 8 -10 0 -10 -4 -11 -11 -4 -5 5 -13 10 -17 10 -11 0 -17 -37 -8 -51
7 -12 9 -11 10 1 1 8 1 20 0 25 -1 6 8 0 18 -13 11 -13 22 -23 25 -22 4 0 7 0
9 -1 29 -8 55 -5 51 5 -6 14 -34 17 -34 4 0 -5 -5 -6 -11 -2 -8 4 -7 9 2 15 7
4 17 5 21 3 4 -3 8 -1 8 3 0 5 -9 14 -20 21 -20 12 -25 6 -21 -20 0 -5 -4 -8
-9 -8 -12 0 -12 2 0 34 5 14 6 25 2 25 -4 -1 -10 0 -14 1 -5 1 -12 4 -18 5 -5
1 -11 3 -12 5 -2 1 -16 4 -32 6 -16 3 -38 10 -49 16 -12 6 -17 6 -13 0 3 -5
-2 -16 -11 -23 -9 -8 -14 -9 -11 -4 9 15 -39 48 -48 33 -4 -6 -3 -8 3 -5 6 4
13 1 16 -7 4 -10 0 -12 -14 -9 -12 3 -19 0 -19 -8 0 -11 -2 -11 -9 0 -11 17
-41 24 -41 10 0 -6 -5 -7 -11 -3 -8 4 -7 9 2 15 12 7 12 9 0 9 -8 0 -11 3 -8
6 4 4 13 1 22 -6 8 -7 15 -9 15 -5 0 4 7 2 15 -5 9 -7 15 -8 15 -2 0 9 -11 16
-35 22 -5 1 -17 5 -25 10 -8 4 -27 4 -42 0z"/>
<path d="M595 2000 c-3 -5 -1 -10 4 -10 6 0 11 5 11 10 0 6 -2 10 -4 10 -3 0
-8 -4 -11 -10z"/>
<path d="M1505 1978 c6 -28 25 -48 25 -26 0 9 -3 18 -7 21 -5 2 -2 2 5 1 18
-5 15 4 -7 16 -17 9 -19 7 -16 -12z"/>
<path d="M1546 1974 c-8 -21 -8 -21 9 -21 8 0 15 5 15 11 0 6 5 4 10 -4 6 -9
10 -10 10 -3 0 7 -9 17 -19 22 -15 8 -20 7 -25 -5z"/>
<path d="M602 1960 c-7 -11 -8 -20 -2 -20 5 0 14 9 20 20 6 11 7 20 3 20 -5 0
-14 -9 -21 -20z"/>
<path d="M553 1925 c0 -8 4 -12 9 -9 5 3 6 10 3 15 -9 13 -12 11 -12 -6z"/>
<path d="M1859 1937 c-1 -4 -2 -11 -3 -16 -3 -21 -18 -25 -30 -9 -12 17 -14
17 -30 -1 -16 -17 -16 -20 -1 -35 10 -9 27 -14 40 -12 13 3 28 -1 34 -8 5 -6
25 -11 43 -11 18 1 35 -1 38 -5 3 -3 17 -13 32 -23 23 -14 26 -14 22 -2 -4 8
-11 15 -18 15 -6 0 -18 9 -26 20 -15 21 -57 29 -44 8 4 -7 3 -8 -4 -4 -15 9
-3 38 12 29 6 -3 3 3 -8 15 -20 23 -45 20 -25 -4 6 -8 10 -14 8 -15 -31 -6
-39 -6 -39 2 0 5 4 9 9 9 6 0 8 10 6 21 -4 22 -14 37 -16 26z m-10 -42 c7 4 8
0 5 -10 -5 -12 -10 -13 -17 -6 -15 15 -30 14 -21 -1 5 -9 2 -9 -9 1 -18 15
-23 26 -7 16 6 -3 10 -1 10 6 0 9 4 9 15 -1 8 -6 19 -9 24 -5z"/>
<path d="M568 1906 c-13 -18 -14 -26 -5 -36 10 -10 9 -12 -4 -7 -13 4 -16 1
-11 -15 4 -17 9 -13 33 26 16 25 29 48 29 51 0 14 -27 2 -42 -19z m32 11 c0
-2 -10 -12 -22 -23 l-23 -19 19 23 c18 21 26 27 26 19z"/>
<path d="M1627 1916 c-3 -8 0 -13 6 -12 15 2 22 19 9 24 -5 1 -12 -4 -15 -12z"/>
<path d="M1755 1921 c-3 -5 -2 -12 3 -15 5 -3 9 1 9 9 0 17 -3 19 -12 6z"/>
</g>
</svg>
