<?xml version="1.0" standalone="no"?>
<!DOCTYPE svg PUBLIC "-//W3C//DTD SVG 20010904//EN"
 "http://www.w3.org/TR/2001/REC-SVG-20010904/DTD/svg10.dtd">
<svg version="1.0" xmlns="http://www.w3.org/2000/svg"
 width="700.000000pt" height="700.000000pt" viewBox="0 0 700.000000 700.000000"
 preserveAspectRatio="xMidYMid meet">
<metadata>
Created by potrace 1.11, written by Peter Selinger 2001-2013
</metadata>
<g transform="translate(0.000000,700.000000) scale(0.100000,-0.100000)"
fill="#000000" stroke="none">
<path d="M516 6979 c-90 -44 -130 -113 -128 -223 1 -39 3 -80 6 -91 5 -23 15
-125 31 -300 3 -38 8 -86 10 -105 3 -19 7 -62 10 -95 3 -33 8 -76 10 -95 5
-32 2 -37 -27 -51 -73 -35 -85 -135 -23 -194 l31 -30 -172 -1 c-192 0 -211 -5
-245 -61 -41 -66 -1 -160 77 -179 l24 -6 0 -2048 0 -2048 -32 -11 c-97 -34
-117 -155 -36 -213 29 -20 43 -22 205 -22 95 -1 173 -3 173 -6 0 -3 -9 -11
-21 -18 -30 -19 -51 -76 -43 -118 7 -36 55 -94 79 -94 14 0 14 -22 0 -135 -3
-22 -7 -71 -10 -110 -3 -38 -8 -81 -10 -95 -2 -14 -7 -61 -10 -105 -4 -44 -8
-91 -10 -105 -24 -156 -21 -251 7 -303 93 -168 338 -145 398 37 11 35 9 136
-5 246 -2 23 -9 88 -20 195 -2 22 -7 72 -10 110 -4 39 -8 81 -10 95 -2 14 -7
58 -10 97 -6 70 -6 73 17 82 86 33 93 161 11 208 l-35 20 153 1 c240 0 225 -2
264 35 50 47 53 118 5 165 -17 17 -30 33 -30 36 0 3 788 5 1752 6 963 0 1753
1 1754 3 1 1 5 30 9 64 3 34 7 70 9 80 2 10 7 47 12 83 4 36 8 67 9 70 1 3 5
40 9 83 5 43 10 76 13 74 4 -5 55 -409 56 -444 0 -10 26 -13 94 -13 82 0 93 2
94 18 0 9 2 24 3 32 3 14 13 93 21 170 6 50 17 132 21 154 2 11 6 44 9 74 3
30 7 67 9 81 2 14 7 53 11 86 4 32 8 66 10 75 3 14 14 106 20 160 2 14 3 35 4
48 1 23 17 32 18 10 0 -16 12 -115 18 -148 2 -14 6 -45 9 -70 3 -25 14 -117
25 -205 11 -88 23 -185 27 -215 3 -30 7 -64 9 -75 1 -11 6 -47 10 -80 9 -80
13 -107 17 -111 2 -2 153 -4 336 -5 301 -2 361 -6 318 -22 -42 -16 -63 -96
-40 -148 28 -65 56 -73 246 -74 93 0 168 -1 168 -3 0 -2 -13 -17 -29 -33 -33
-33 -40 -58 -30 -108 8 -36 54 -91 77 -91 14 0 14 -22 -4 -175 -1 -16 -6 -61
-9 -100 -3 -38 -8 -81 -10 -95 -2 -14 -7 -59 -11 -100 -3 -41 -8 -88 -10 -105
-14 -141 -15 -205 -4 -241 18 -55 48 -92 99 -122 116 -68 272 -10 313 118 9
26 11 123 4 175 -2 17 -7 62 -10 100 -4 39 -8 84 -11 100 -2 17 -7 62 -10 100
-6 70 -10 110 -19 195 -18 156 -19 148 18 165 80 38 81 152 3 204 -28 18 -26
18 152 19 153 0 184 3 210 18 37 22 56 56 56 103 0 50 -28 90 -76 109 l-39 15
2 2051 3 2051 24 3 c13 2 37 16 54 32 55 51 42 145 -26 185 -26 16 -55 18
-214 18 -168 0 -181 1 -154 14 85 42 88 164 6 209 -28 15 -34 23 -30 44 2 14
6 61 10 105 3 44 8 99 10 122 3 24 7 62 9 85 3 24 8 68 11 98 19 171 29 290
27 333 -6 140 -169 235 -302 176 -97 -44 -137 -126 -126 -257 4 -42 9 -99 11
-127 2 -27 7 -70 10 -95 3 -25 8 -70 10 -100 5 -55 13 -134 20 -200 18 -164
18 -168 -2 -174 -32 -10 -72 -60 -74 -91 -3 -58 1 -74 31 -103 17 -17 30 -32
30 -34 0 -2 -69 -3 -154 -3 -173 1 -202 -4 -238 -40 -52 -52 -41 -145 22 -184
l32 -19 -104 0 c-56 0 -905 0 -1885 -1 l-1781 -1 -7 -52 c-3 -29 -8 -71 -11
-93 -2 -22 -7 -51 -9 -65 -2 -14 -7 -52 -10 -85 -3 -33 -8 -69 -10 -80 -2 -11
-4 -36 -5 -55 l-2 -35 -8 29 c-5 16 -12 59 -15 95 -4 36 -9 77 -11 91 -3 14
-7 43 -9 65 -3 22 -8 63 -11 90 -4 28 -8 59 -9 70 -1 18 -10 20 -93 23 -83 2
-92 1 -93 -15 0 -10 -2 -27 -4 -38 -3 -11 -7 -45 -11 -75 -3 -30 -7 -62 -9
-70 -1 -8 -6 -44 -10 -80 -4 -36 -9 -72 -10 -80 -2 -8 -6 -44 -9 -80 -4 -36
-9 -76 -11 -90 -4 -25 -9 -60 -20 -159 -4 -30 -8 -61 -10 -70 -1 -9 -6 -49
-10 -88 -4 -40 -10 -73 -14 -73 -4 0 -8 6 -8 13 0 6 -3 30 -7 52 -3 22 -8 60
-11 85 -7 70 -16 143 -20 170 -2 14 -9 66 -15 115 -6 50 -13 104 -15 120 -4
31 -13 106 -21 165 -2 19 -7 55 -10 80 -3 25 -8 60 -10 79 -2 18 -5 35 -6 37
-2 1 -99 4 -216 6 -117 1 -212 4 -212 6 0 2 14 17 30 34 54 53 42 140 -25 184
-22 14 -56 17 -217 17 -175 0 -189 1 -157 14 42 16 71 61 71 109 0 42 -21 77
-62 101 l-31 18 6 75 c3 41 8 86 10 100 2 14 7 57 11 95 4 39 8 81 9 95 2 14
6 61 10 105 4 44 9 88 11 98 2 10 6 61 10 113 9 138 -16 199 -105 251 -57 34
-140 40 -195 12z"/>
</g>
</svg>
